<?xml version="1.0" encoding="utf-8"?>
<!-- Generator: Adobe Illustrator 19.0.0, SVG Export Plug-In . SVG Version: 6.00 Build 0)  -->
<svg version="1.0" id="Layer_1" xmlns="http://www.w3.org/2000/svg" xmlns:xlink="http://www.w3.org/1999/xlink" x="0px" y="0px"
	 viewBox="0 0 1920 1080" style="enable-background:new 0 0 1920 1080;" xml:space="preserve">
<style type="text/css">
	.st0{fill:none;stroke:#B3B3B3;stroke-width:1;stroke-miterlimit:10;opacity:0.1}
</style>
<line id="XMLID_1_" class="st0" x1="0" y1="1" x2="1920" y2="1"/>
<line id="XMLID_3_" class="st0" x1="0" y1="14" x2="1920" y2="14"/>
<line id="XMLID_5_" class="st0" x1="0" y1="41" x2="1920" y2="41"/>
<line id="XMLID_4_" class="st0" x1="0" y1="68" x2="1920" y2="68"/>
<line id="XMLID_9_" class="st0" x1="0" y1="94" x2="1920" y2="94"/>
<line id="XMLID_8_" class="st0" x1="0" y1="121" x2="1920" y2="121"/>
<line id="XMLID_7_" class="st0" x1="0" y1="148" x2="1920" y2="148"/>
<line id="XMLID_6_" class="st0" x1="0" y1="174" x2="1920" y2="174"/>
<line id="XMLID_17_" class="st0" x1="0" y1="201" x2="1920" y2="201"/>
<line id="XMLID_16_" class="st0" x1="0" y1="228" x2="1920" y2="228"/>
<line id="XMLID_15_" class="st0" x1="0" y1="254" x2="1920" y2="254"/>
<line id="XMLID_14_" class="st0" x1="0" y1="281" x2="1920" y2="281"/>
<line id="XMLID_13_" class="st0" x1="0" y1="308" x2="1920" y2="308"/>
<line id="XMLID_12_" class="st0" x1="0" y1="334" x2="1920" y2="334"/>
<line id="XMLID_11_" class="st0" x1="0" y1="361" x2="1920" y2="361"/>
<line id="XMLID_10_" class="st0" x1="0" y1="388" x2="1920" y2="388"/>
<line id="XMLID_33_" class="st0" x1="0" y1="414" x2="1920" y2="414"/>
<line id="XMLID_32_" class="st0" x1="0" y1="441" x2="1920" y2="441"/>
<line id="XMLID_31_" class="st0" x1="0" y1="468" x2="1920" y2="468"/>
<line id="XMLID_30_" class="st0" x1="0" y1="494" x2="1920" y2="494"/>
<line id="XMLID_29_" class="st0" x1="0" y1="521" x2="1920" y2="521"/>
<line id="XMLID_28_" class="st0" x1="0" y1="574" x2="1920" y2="574"/>
<line id="XMLID_27_" class="st0" x1="0" y1="681" x2="1920" y2="681"/>
<line id="XMLID_26_" class="st0" x1="0" y1="708" x2="1920" y2="708"/>
<line id="XMLID_25_" class="st0" x1="0" y1="734" x2="1920" y2="734"/>
<line id="XMLID_24_" class="st0" x1="0" y1="788" x2="1920" y2="788"/>
<line id="XMLID_23_" class="st0" x1="0" y1="894" x2="1920" y2="894"/>
<line id="XMLID_22_" class="st0" x1="0" y1="921" x2="1920" y2="921"/>
<line id="XMLID_21_" class="st0" x1="0" y1="948" x2="1920" y2="948"/>
<line id="XMLID_20_" class="st0" x1="0" y1="1001" x2="1920" y2="1001"/>
<line id="XMLID_43_" class="st0" x1="0" y1="548" x2="1920" y2="548"/>
<line id="XMLID_42_" class="st0" x1="0" y1="601" x2="1920" y2="601"/>
<line id="XMLID_41_" class="st0" x1="0" y1="628" x2="1920" y2="628"/>
<line id="XMLID_40_" class="st0" x1="0" y1="654" x2="1920" y2="654"/>
<line id="XMLID_39_" class="st0" x1="0" y1="761" x2="1920" y2="761"/>
<line id="XMLID_38_" class="st0" x1="0" y1="814" x2="1920" y2="814"/>
<line id="XMLID_37_" class="st0" x1="0" y1="841" x2="1920" y2="841"/>
<line id="XMLID_36_" class="st0" x1="0" y1="868" x2="1920" y2="868"/>
<line id="XMLID_35_" class="st0" x1="0" y1="974" x2="1920" y2="974"/>
<line id="XMLID_34_" class="st0" x1="0" y1="1028" x2="1920" y2="1028"/>
<line id="XMLID_19_" class="st0" x1="0" y1="1054" x2="1920" y2="1054"/>
<line id="XMLID_18_" class="st0" x1="0" y1="1081" x2="1920" y2="1081"/>
<line id="XMLID_83_" class="st0" x1="0" y1="28" x2="1920" y2="28"/>
<line id="XMLID_82_" class="st0" x1="0" y1="54" x2="1920" y2="54"/>
<line id="XMLID_81_" class="st0" x1="0" y1="81" x2="1920" y2="81"/>
<line id="XMLID_80_" class="st0" x1="0" y1="108" x2="1920" y2="108"/>
<line id="XMLID_79_" class="st0" x1="0" y1="134" x2="1920" y2="134"/>
<line id="XMLID_78_" class="st0" x1="0" y1="161" x2="1920" y2="161"/>
<line id="XMLID_77_" class="st0" x1="0" y1="188" x2="1920" y2="188"/>
<line id="XMLID_76_" class="st0" x1="0" y1="214" x2="1920" y2="214"/>
<line id="XMLID_75_" class="st0" x1="0" y1="241" x2="1920" y2="241"/>
<line id="XMLID_74_" class="st0" x1="0" y1="268" x2="1920" y2="268"/>
<line id="XMLID_73_" class="st0" x1="0" y1="294" x2="1920" y2="294"/>
<line id="XMLID_72_" class="st0" x1="0" y1="321" x2="1920" y2="321"/>
<line id="XMLID_71_" class="st0" x1="0" y1="348" x2="1920" y2="348"/>
<line id="XMLID_70_" class="st0" x1="0" y1="374" x2="1920" y2="374"/>
<line id="XMLID_69_" class="st0" x1="0" y1="401" x2="1920" y2="401"/>
<line id="XMLID_68_" class="st0" x1="0" y1="428" x2="1920" y2="428"/>
<line id="XMLID_67_" class="st0" x1="0" y1="454" x2="1920" y2="454"/>
<line id="XMLID_66_" class="st0" x1="0" y1="481" x2="1920" y2="481"/>
<line id="XMLID_65_" class="st0" x1="0" y1="508" x2="1920" y2="508"/>
<line id="XMLID_64_" class="st0" x1="0" y1="561" x2="1920" y2="561"/>
<line id="XMLID_63_" class="st0" x1="0" y1="668" x2="1920" y2="668"/>
<line id="XMLID_62_" class="st0" x1="0" y1="694" x2="1920" y2="694"/>
<line id="XMLID_61_" class="st0" x1="0" y1="721" x2="1920" y2="721"/>
<line id="XMLID_60_" class="st0" x1="0" y1="774" x2="1920" y2="774"/>
<line id="XMLID_59_" class="st0" x1="0" y1="881" x2="1920" y2="881"/>
<line id="XMLID_58_" class="st0" x1="0" y1="908" x2="1920" y2="908"/>
<line id="XMLID_57_" class="st0" x1="0" y1="934" x2="1920" y2="934"/>
<line id="XMLID_56_" class="st0" x1="0" y1="988" x2="1920" y2="988"/>
<line id="XMLID_55_" class="st0" x1="0" y1="534" x2="1920" y2="534"/>
<line id="XMLID_54_" class="st0" x1="0" y1="588" x2="1920" y2="588"/>
<line id="XMLID_53_" class="st0" x1="0" y1="614" x2="1920" y2="614"/>
<line id="XMLID_52_" class="st0" x1="0" y1="641" x2="1920" y2="641"/>
<line id="XMLID_51_" class="st0" x1="0" y1="748" x2="1920" y2="748"/>
<line id="XMLID_50_" class="st0" x1="0" y1="801" x2="1920" y2="801"/>
<line id="XMLID_49_" class="st0" x1="0" y1="828" x2="1920" y2="828"/>
<line id="XMLID_48_" class="st0" x1="0" y1="854" x2="1920" y2="854"/>
<line id="XMLID_47_" class="st0" x1="0" y1="961" x2="1920" y2="961"/>
<line id="XMLID_46_" class="st0" x1="0" y1="1014" x2="1920" y2="1014"/>
<line id="XMLID_45_" class="st0" x1="0" y1="1041" x2="1920" y2="1041"/>
<line id="XMLID_44_" class="st0" x1="0" y1="1068" x2="1920" y2="1068"/>
</svg>
